<svg xmlns="http://www.w3.org/2000/svg" viewBox="0 0 720 350" width="720" height="350" font-family="Plex Sans, IBM Plex Sans, DejaVu Sans, sans-serif">
<rect x="35" y="14" width="150" height="36" rx="7" fill="#EAF2FB" stroke="#1F5FA8" stroke-width="1.3"/>
<text x="110" y="35.3" font-family="Plex Sans, IBM Plex Sans, DejaVu Sans, sans-serif" font-size="11.5" font-weight="600" fill="#13294B" text-anchor="middle">Frontend</text>
<line x1="110" y1="52" x2="110" y2="340" stroke="#98A2B3" stroke-width="1.1" stroke-dasharray="4 4" stroke-linecap="round"/>
<rect x="285" y="14" width="150" height="36" rx="7" fill="#13294B" stroke="#13294B" stroke-width="1.3"/>
<text x="360" y="35.3" font-family="Plex Sans, IBM Plex Sans, DejaVu Sans, sans-serif" font-size="11.5" font-weight="600" fill="#FFFFFF" text-anchor="middle">Backend (API)</text>
<line x1="360" y1="52" x2="360" y2="340" stroke="#98A2B3" stroke-width="1.1" stroke-dasharray="4 4" stroke-linecap="round"/>
<rect x="535" y="14" width="150" height="36" rx="7" fill="#E7F6F3" stroke="#0F766E" stroke-width="1.3"/>
<text x="610" y="35.3" font-family="Plex Sans, IBM Plex Sans, DejaVu Sans, sans-serif" font-size="11.5" font-weight="600" fill="#0B4F4A" text-anchor="middle">Database</text>
<line x1="610" y1="52" x2="610" y2="340" stroke="#98A2B3" stroke-width="1.1" stroke-dasharray="4 4" stroke-linecap="round"/>
<line x1="110" y1="84" x2="355.1" y2="84" stroke="#475467" stroke-width="1.4" stroke-linecap="round"/>
<polygon points="360,84 353,80.6 353,87.4" fill="#475467" stroke="none" stroke-width="1"/>
<rect x="106.4" y="65.8" width="257.3" height="14.5" rx="3" fill="#FFFFFF" stroke="none" stroke-width="0"/>
<text x="235" y="76.2" font-family="Plex Sans, IBM Plex Sans, DejaVu Sans, sans-serif" font-size="9.2" font-weight="500" fill="#13294B" text-anchor="middle">GET /api/users?page=1   (Authorization: Bearer &lt;token&gt;)</text>
<rect x="366" y="104" width="210" height="34" rx="4" fill="#FFF8E6" stroke="#C27803" stroke-width="1"/>
<text x="471" y="118.5" font-family="Plex Sans, IBM Plex Sans, DejaVu Sans, sans-serif" font-size="9" font-weight="500" fill="#7A4B02" text-anchor="middle">check token → allowed?</text>
<text x="471" y="129.8" font-family="Plex Sans, IBM Plex Sans, DejaVu Sans, sans-serif" font-size="9" font-weight="500" fill="#7A4B02" text-anchor="middle">validate query parameters</text>
<line x1="360" y1="166" x2="605.1" y2="166" stroke="#475467" stroke-width="1.4" stroke-linecap="round"/>
<polygon points="610,166 603,162.6 603,169.4" fill="#475467" stroke="none" stroke-width="1"/>
<rect x="327.3" y="147.8" width="315.5" height="14.5" rx="3" fill="#FFFFFF" stroke="none" stroke-width="0"/>
<text x="485" y="158.2" font-family="Plex Sans, IBM Plex Sans, DejaVu Sans, sans-serif" font-size="9.2" font-weight="500" fill="#13294B" text-anchor="middle">SELECT id, name, email FROM users ORDER BY id LIMIT 20 OFFSET 0;</text>
<line x1="610" y1="204" x2="364.9" y2="204" stroke="#475467" stroke-width="1.4" stroke-dasharray="5 4" stroke-linecap="round"/>
<polygon points="360,204 367,207.4 367,200.6" fill="#475467" stroke="none" stroke-width="1"/>
<rect x="463.6" y="185.8" width="42.8" height="14.5" rx="3" fill="#FFFFFF" stroke="none" stroke-width="0"/>
<text x="485" y="196.2" font-family="Plex Sans, IBM Plex Sans, DejaVu Sans, sans-serif" font-size="9.2" font-weight="500" fill="#344054" text-anchor="middle">20 rows</text>
<rect x="366" y="224" width="210" height="34" rx="4" fill="#FFF8E6" stroke="#C27803" stroke-width="1"/>
<text x="471" y="238.5" font-family="Plex Sans, IBM Plex Sans, DejaVu Sans, sans-serif" font-size="9" font-weight="500" fill="#7A4B02" text-anchor="middle">convert rows → JSON</text>
<text x="471" y="249.8" font-family="Plex Sans, IBM Plex Sans, DejaVu Sans, sans-serif" font-size="9" font-weight="500" fill="#7A4B02" text-anchor="middle">add paging info</text>
<line x1="360" y1="292" x2="114.9" y2="292" stroke="#475467" stroke-width="1.4" stroke-dasharray="5 4" stroke-linecap="round"/>
<polygon points="110,292 117,295.4 117,288.6" fill="#475467" stroke="none" stroke-width="1"/>
<rect x="153.3" y="273.8" width="163.4" height="14.5" rx="3" fill="#FFFFFF" stroke="none" stroke-width="0"/>
<text x="235" y="284.2" font-family="Plex Sans, IBM Plex Sans, DejaVu Sans, sans-serif" font-size="9.2" font-weight="500" fill="#344054" text-anchor="middle">200 OK  [{"id":1,"name":"Asha",…}]</text>
</svg>
