<svg xmlns="http://www.w3.org/2000/svg" viewBox="0 0 720 420" width="720" height="420" font-family="Plex Sans, IBM Plex Sans, DejaVu Sans, sans-serif">
<rect x="10" y="20" width="170" height="58" rx="7" fill="#EAF2FB" stroke="#1F5FA8" stroke-width="1.3"/>
<text x="95" y="45" font-family="Plex Sans, IBM Plex Sans, DejaVu Sans, sans-serif" font-size="11.5" font-weight="600" fill="#13294B" text-anchor="middle">React frontend</text>
<text x="95" y="59.9" font-family="Plex Sans, IBM Plex Sans, DejaVu Sans, sans-serif" font-size="9" font-weight="400" fill="#5B6575" text-anchor="middle">forms, tables, login page</text>
<line x1="182" y1="49" x2="242.8" y2="49" stroke="#475467" stroke-width="1.4" stroke-linecap="round"/>
<polygon points="248,49 240.5,45.4 240.5,52.6" fill="#475467" stroke="none" stroke-width="1"/>
<rect x="181.9" y="20.5" width="66.3" height="25" rx="3" fill="#FFFFFF" stroke="none" stroke-width="0"/>
<text x="215" y="30.6" font-family="Plex Sans, IBM Plex Sans, DejaVu Sans, sans-serif" font-size="8.8" font-weight="500" fill="#344054" text-anchor="middle">HTTPS + JSON</text>
<text x="215" y="41.6" font-family="Plex Sans, IBM Plex Sans, DejaVu Sans, sans-serif" font-size="8.8" font-weight="500" fill="#344054" text-anchor="middle">Bearer JWT</text>
<rect x="250" y="14" width="290" height="252" rx="9" fill="#FFFFFF" stroke="#1F5FA8" stroke-width="1.1" stroke-dasharray="5 4"/>
<rect x="262" y="6.1" width="123.2" height="15.8" rx="3" fill="#FFFFFF" stroke="none" stroke-width="0"/>
<text x="268" y="17.7" font-family="Plex Sans, IBM Plex Sans, DejaVu Sans, sans-serif" font-size="10.5" font-weight="600" fill="#1F5FA8" text-anchor="start">Spring Boot REST API</text>
<rect x="266" y="38" width="258" height="56" rx="7" fill="#EAF2FB" stroke="#1F5FA8" stroke-width="1.3"/>
<text x="395" y="62" font-family="Plex Sans, IBM Plex Sans, DejaVu Sans, sans-serif" font-size="11.5" font-weight="600" fill="#13294B" text-anchor="middle">Controller</text>
<text x="395" y="76.9" font-family="Plex Sans, IBM Plex Sans, DejaVu Sans, sans-serif" font-size="9" font-weight="400" fill="#5B6575" text-anchor="middle">REST endpoints, validation, status codes</text>
<line x1="395" y1="96" x2="395" y2="106.2" stroke="#475467" stroke-width="1.4" stroke-linecap="round"/>
<polygon points="395,110 397.6,104.5 392.4,104.5" fill="#475467" stroke="none" stroke-width="1"/>
<rect x="266" y="112" width="258" height="56" rx="7" fill="#EAF2FB" stroke="#1F5FA8" stroke-width="1.3"/>
<text x="395" y="136" font-family="Plex Sans, IBM Plex Sans, DejaVu Sans, sans-serif" font-size="11.5" font-weight="600" fill="#13294B" text-anchor="middle">Service</text>
<text x="395" y="150.9" font-family="Plex Sans, IBM Plex Sans, DejaVu Sans, sans-serif" font-size="9" font-weight="400" fill="#5B6575" text-anchor="middle">business rules, @Transactional</text>
<line x1="395" y1="170" x2="395" y2="180.2" stroke="#475467" stroke-width="1.4" stroke-linecap="round"/>
<polygon points="395,184 397.6,178.5 392.4,178.5" fill="#475467" stroke="none" stroke-width="1"/>
<rect x="266" y="186" width="258" height="56" rx="7" fill="#EAF2FB" stroke="#1F5FA8" stroke-width="1.3"/>
<text x="395" y="210" font-family="Plex Sans, IBM Plex Sans, DejaVu Sans, sans-serif" font-size="11.5" font-weight="600" fill="#13294B" text-anchor="middle">Repository</text>
<text x="395" y="224.9" font-family="Plex Sans, IBM Plex Sans, DejaVu Sans, sans-serif" font-size="9" font-weight="400" fill="#5B6575" text-anchor="middle">JPA / SQL queries</text>
<path d="M276,311 A90,11 0 0 1 456,311 L456,381 A90,11 0 0 1 276,381 Z" fill="#E7F6F3" stroke="#0F766E" stroke-width="1.3" stroke-linejoin="round"/>
<ellipse cx="366" cy="311" rx="90" ry="11" fill="#E7F6F3" stroke="#0F766E" stroke-width="1.3"/>
<text x="366" y="341.8" font-family="Plex Sans, IBM Plex Sans, DejaVu Sans, sans-serif" font-size="12" font-weight="600" fill="#0B4F4A" text-anchor="middle">PostgreSQL</text>
<text x="366" y="356.9" font-family="Plex Sans, IBM Plex Sans, DejaVu Sans, sans-serif" font-size="9" font-weight="400" fill="#5B6575" text-anchor="middle">normalized tables, FKs,</text>
<text x="366" y="368.6" font-family="Plex Sans, IBM Plex Sans, DejaVu Sans, sans-serif" font-size="9" font-weight="400" fill="#5B6575" text-anchor="middle">indexes, transactions</text>
<line x1="395" y1="244" x2="368" y2="294.3" stroke="#475467" stroke-width="1.4" stroke-linecap="round"/>
<polygon points="366,298 371.4,294.1 366.3,291.4" fill="#475467" stroke="none" stroke-width="1"/>
<rect x="590" y="30" width="122" height="56" rx="7" fill="#FFF4E6" stroke="#B5520C" stroke-width="1.3"/>
<text x="651" y="53.8" font-family="Plex Sans, IBM Plex Sans, DejaVu Sans, sans-serif" font-size="11" font-weight="600" fill="#7A3608" text-anchor="middle">Redis cache</text>
<text x="651" y="68.6" font-family="Plex Sans, IBM Plex Sans, DejaVu Sans, sans-serif" font-size="9" font-weight="400" fill="#5B6575" text-anchor="middle">hot product list</text>
<line x1="528.7" y1="136.8" x2="585.3" y2="69.2" stroke="#667085" stroke-width="1.4" stroke-linecap="round"/>
<polygon points="588,66 581.9,68.7 586.4,72.4" fill="#667085" stroke="none" stroke-width="1"/>
<polygon points="526,140 532.1,137.3 527.6,133.6" fill="#667085" stroke="none" stroke-width="1"/>
<rect x="590" y="120" width="122" height="64" rx="7" fill="#FFFFFF" stroke="#98A2B3" stroke-width="1.3" stroke-dasharray="5 4"/>
<text x="651" y="142.5" font-family="Plex Sans, IBM Plex Sans, DejaVu Sans, sans-serif" font-size="11" font-weight="600" fill="#344054" text-anchor="middle">Payment API</text>
<text x="651" y="156.9" font-family="Plex Sans, IBM Plex Sans, DejaVu Sans, sans-serif" font-size="8.6" font-weight="400" fill="#5B6575" text-anchor="middle">timeouts, retries,</text>
<text x="651" y="168.1" font-family="Plex Sans, IBM Plex Sans, DejaVu Sans, sans-serif" font-size="8.6" font-weight="400" fill="#5B6575" text-anchor="middle">idempotency key</text>
<line x1="530.2" y1="150.1" x2="583.8" y2="151.9" stroke="#667085" stroke-width="1.4" stroke-linecap="round"/>
<polygon points="588,152 582.1,148.9 581.9,154.7" fill="#667085" stroke="none" stroke-width="1"/>
<polygon points="526,150 531.9,153.1 532.1,147.3" fill="#667085" stroke="none" stroke-width="1"/>
<rect x="590" y="214" width="122" height="56" rx="7" fill="#EAF7EF" stroke="#2F7A4D" stroke-width="1.3"/>
<text x="651" y="237.8" font-family="Plex Sans, IBM Plex Sans, DejaVu Sans, sans-serif" font-size="11" font-weight="600" fill="#1F5136" text-anchor="middle">Queue → email</text>
<text x="651" y="252.6" font-family="Plex Sans, IBM Plex Sans, DejaVu Sans, sans-serif" font-size="9" font-weight="400" fill="#5B6575" text-anchor="middle">async notifications</text>
<line x1="526" y1="166" x2="585.3" y2="234.8" stroke="#667085" stroke-width="1.4" stroke-linecap="round"/>
<polygon points="588,238 586.3,231.6 581.9,235.3" fill="#667085" stroke="none" stroke-width="1"/>
<rect x="520" y="330" width="192" height="62" rx="7" fill="#F2EDFC" stroke="#6941C6" stroke-width="1.3"/>
<text x="616" y="356.8" font-family="Plex Sans, IBM Plex Sans, DejaVu Sans, sans-serif" font-size="11" font-weight="600" fill="#3E1F8C" text-anchor="middle">Nightly export / ETL</text>
<text x="616" y="371.6" font-family="Plex Sans, IBM Plex Sans, DejaVu Sans, sans-serif" font-size="9" font-weight="400" fill="#5B6575" text-anchor="middle">to a warehouse for reports</text>
<line x1="458" y1="346" x2="513.9" y2="359" stroke="#667085" stroke-width="1.4" stroke-linecap="round"/>
<polygon points="518,360 512.8,355.8 511.5,361.4" fill="#667085" stroke="none" stroke-width="1"/>
<rect x="10" y="120" width="210" height="112" rx="7" fill="#F8F9FB" stroke="#98A2B3" stroke-width="1.3"/>
<text x="22" y="140" font-family="Plex Sans, IBM Plex Sans, DejaVu Sans, sans-serif" font-size="9.4" font-weight="700" fill="#13294B" text-anchor="start">Where each concept lives:</text>
<text x="22" y="154.5" font-family="Plex Sans, IBM Plex Sans, DejaVu Sans, sans-serif" font-size="9.4" font-weight="400" fill="#344054" text-anchor="start">SQL &amp; joins → Repository</text>
<text x="22" y="169" font-family="Plex Sans, IBM Plex Sans, DejaVu Sans, sans-serif" font-size="9.4" font-weight="400" fill="#344054" text-anchor="start">Transactions → Service layer</text>
<text x="22" y="183.5" font-family="Plex Sans, IBM Plex Sans, DejaVu Sans, sans-serif" font-size="9.4" font-weight="400" fill="#344054" text-anchor="start">Indexes → PostgreSQL</text>
<text x="22" y="198" font-family="Plex Sans, IBM Plex Sans, DejaVu Sans, sans-serif" font-size="9.4" font-weight="400" fill="#344054" text-anchor="start">REST / JSON / status → Controller</text>
<text x="22" y="212.5" font-family="Plex Sans, IBM Plex Sans, DejaVu Sans, sans-serif" font-size="9.4" font-weight="400" fill="#344054" text-anchor="start">AuthN/AuthZ → JWT filter</text>
<text x="22" y="227" font-family="Plex Sans, IBM Plex Sans, DejaVu Sans, sans-serif" font-size="9.4" font-weight="400" fill="#344054" text-anchor="start">Integration → Payment API</text>
</svg>
